<?xml version="1.0" encoding="UTF-8" standalone="no"?>
<!DOCTYPE svg PUBLIC "-//W3C//DTD SVG 1.1//EN"
 "http://www.w3.org/Graphics/SVG/1.1/DTD/svg11.dtd">
<!-- Generated by graphviz version 2.40.1 (20161225.0304)
 -->
<!-- Title: Modules Pages: 1 -->
<svg width="860pt" height="576pt"
 viewBox="0.00 0.00 860.05 576.00" xmlns="http://www.w3.org/2000/svg" xmlns:xlink="http://www.w3.org/1999/xlink">
<g id="graph0" class="graph" transform="scale(.9863 .9863) rotate(0) translate(4 580)">
<title>Modules</title>
<polygon fill="#ffffff" stroke="transparent" points="-4,4 -4,-580 868,-580 868,4 -4,4"/>
<g id="clust1" class="cluster">
<title>cluster_0</title>
<polygon fill="#000000" fill-opacity="0.058824" stroke="#000000" stroke-opacity="0.058824" points="388.7267,-359.1111 388.7267,-561.7778 591.1579,-561.7778 591.1579,-359.1111 388.7267,-359.1111"/>
<text text-anchor="middle" x="489.9423" y="-546.5778" font-family="Times,serif" font-size="14.00" fill="#000000">Test</text>
</g>
<g id="clust2" class="cluster">
<title>cluster_1</title>
<polygon fill="#000000" fill-opacity="0.058824" stroke="#000000" stroke-opacity="0.058824" points="400.4618,-373.3333 400.4618,-506.6667 579.4228,-506.6667 579.4228,-373.3333 400.4618,-373.3333"/>
<text text-anchor="middle" x="489.9423" y="-491.4667" font-family="Times,serif" font-size="14.00" fill="#000000">QuickCheck</text>
</g>
<g id="clust3" class="cluster">
<title>cluster_2</title>
<polygon fill="#000000" fill-opacity="0.058824" stroke="#000000" stroke-opacity="0.058824" points="11.7351,-14.2222 11.7351,-344.8889 852.2649,-344.8889 852.2649,-14.2222 11.7351,-14.2222"/>
<text text-anchor="middle" x="432" y="-329.6889" font-family="Times,serif" font-size="14.00" fill="#000000">Timeline</text>
</g>
<g id="clust4" class="cluster">
<title>cluster_3</title>
<polygon fill="#000000" fill-opacity="0.058824" stroke="#000000" stroke-opacity="0.058824" points="23.4703,-28.4444 23.4703,-289.7778 840.5297,-289.7778 840.5297,-28.4444 23.4703,-28.4444"/>
<text text-anchor="middle" x="432" y="-274.5778" font-family="Times,serif" font-size="14.00" fill="#000000">Data</text>
</g>
<!-- u0 -->
<g id="node1" class="node">
<title>u0</title>
<ellipse fill="#bbbbff" stroke="#000000" stroke-width="0" cx="490" cy="-419.2222" rx="53.0913" ry="18"/>
<text text-anchor="middle" x="490" y="-415.5222" font-family="Times,serif" font-size="14.00" fill="#000000">UTF8String</text>
</g>
<!-- u6 -->
<g id="node2" class="node">
<title>u6</title>
<ellipse fill="#ffbbbb" stroke="#000000" stroke-width="2" cx="314" cy="-74.2222" rx="27.0966" ry="18"/>
<text text-anchor="middle" x="314" y="-70.5222" font-family="Times,serif" font-size="14.00" fill="#000000">Data</text>
</g>
<!-- u0&#45;&gt;u6 -->
<g id="edge3" class="edge">
<title>u0&#45;&gt;u6</title>
<path fill="none" stroke="#000000" d="M441.8869,-411.1806C339.3861,-392.9657 105.0634,-345.1987 59,-282.2222 33.2862,-247.0671 35.0661,-220.6125 59,-184.2222 107.7607,-110.0842 218.2085,-85.6917 276.4444,-77.8366"/>
<polygon fill="#000000" stroke="#000000" points="277.1966,-81.2698 286.6841,-76.554 276.3266,-74.3241 277.1966,-81.2698"/>
</g>
<!-- u1 -->
<g id="node3" class="node">
<title>u1</title>
<ellipse fill="#bbffff" stroke="#000000" stroke-width="0" cx="757" cy="-202.2222" rx="48.9926" ry="18"/>
<text text-anchor="middle" x="757" y="-198.5222" font-family="Times,serif" font-size="14.00" fill="#000000">TimeScale</text>
</g>
<!-- u0&#45;&gt;u1 -->
<g id="edge1" class="edge">
<title>u0&#45;&gt;u1</title>
<path fill="none" stroke="#000000" d="M510.5077,-402.5549C557.8967,-364.0402 675.0598,-268.8178 728.9989,-224.9797"/>
<polygon fill="#000000" stroke="#000000" points="731.2351,-227.6724 736.7879,-218.6493 726.8202,-222.2402 731.2351,-227.6724"/>
</g>
<!-- u3 -->
<g id="node5" class="node">
<title>u3</title>
<ellipse fill="#bbffff" stroke="#000000" stroke-width="0" cx="490" cy="-202.2222" rx="31.3957" ry="18"/>
<text text-anchor="middle" x="490" y="-198.5222" font-family="Times,serif" font-size="14.00" fill="#000000">Event</text>
</g>
<!-- u0&#45;&gt;u3 -->
<g id="edge2" class="edge">
<title>u0&#45;&gt;u3</title>
<path fill="none" stroke="#000000" d="M490,-401.0942C490,-363.2788 490,-275.7477 490,-230.477"/>
<polygon fill="#000000" stroke="#000000" points="493.5001,-230.4513 490,-220.4513 486.5001,-230.4513 493.5001,-230.4513"/>
</g>
<!-- u1&#45;&gt;u6 -->
<g id="edge4" class="edge">
<title>u1&#45;&gt;u6</title>
<path fill="none" stroke="#000000" d="M718.4616,-191.087C633.3725,-166.5014 430.5451,-107.8966 348.9163,-84.3109"/>
<polygon fill="#000000" stroke="#000000" points="349.705,-80.8957 339.1264,-81.4822 347.7618,-87.6206 349.705,-80.8957"/>
</g>
<!-- u2 -->
<g id="node4" class="node">
<title>u2</title>
<ellipse fill="#bbffff" stroke="#000000" stroke-width="0" cx="610" cy="-202.2222" rx="33.2948" ry="18"/>
<text text-anchor="middle" x="610" y="-198.5222" font-family="Times,serif" font-size="14.00" fill="#000000">Signal</text>
</g>
<!-- u3&#45;&gt;u6 -->
<g id="edge5" class="edge">
<title>u3&#45;&gt;u6</title>
<path fill="none" stroke="#000000" d="M470.4925,-188.0349C438.9746,-165.1129 376.7802,-119.8806 341.0186,-93.8721"/>
<polygon fill="#000000" stroke="#000000" points="342.6769,-90.7504 332.5309,-87.6993 338.5597,-96.4116 342.6769,-90.7504"/>
</g>
<!-- u4 -->
<g id="node6" class="node">
<title>u4</title>
<ellipse fill="#bbffff" stroke="#000000" stroke-width="0" cx="345" cy="-202.2222" rx="50.0912" ry="18"/>
<text text-anchor="middle" x="345" y="-198.5222" font-family="Times,serif" font-size="14.00" fill="#000000">TimeIndex</text>
</g>
<!-- u5 -->
<g id="node7" class="node">
<title>u5</title>
<ellipse fill="#bbffff" stroke="#000000" stroke-width="0" cx="139" cy="-202.2222" rx="71.4873" ry="18"/>
<text text-anchor="middle" x="139" y="-198.5222" font-family="Times,serif" font-size="14.00" fill="#000000">TimeComponent</text>
</g>
<!-- u5&#45;&gt;u6 -->
<g id="edge6" class="edge">
<title>u5&#45;&gt;u6</title>
<path fill="none" stroke="#000000" d="M162.6013,-184.9596C195.112,-161.1803 253.4999,-118.4737 287.4812,-93.6188"/>
<polygon fill="#000000" stroke="#000000" points="289.5589,-96.4355 295.5641,-87.7068 285.4264,-90.7855 289.5589,-96.4355"/>
</g>
</g>
</svg>
